<svg width="53" height="52" viewBox="0 0 53 52" fill="none" xmlns="http://www.w3.org/2000/svg">
<path d="M43.2197 44.2305L52.2295 52L20.874 45.667L43.2197 44.2305ZM52.875 51.2383L44.3164 42.9795L43.7383 20.6348L52.875 51.2383ZM43.3848 43.4814L15.1699 44.7734L12.8594 31.9219L43.3848 43.4814ZM12.3232 44.1748L0 44.3291L5.68164 38.1191L12.3232 44.1748ZM13.8291 44.0049L6.45117 37.2764L11.8096 31.4209L13.8291 44.0049ZM42.3311 15.042L43.5801 43.2119L29.2969 13.9043L42.3311 15.042ZM40.5771 41.373L12.749 30.9707L20.2236 22.8066L40.5771 41.373ZM41.2266 40.6123L20.8662 22.0449L28.3408 13.8828L41.2266 40.6123ZM19.6865 22.3223L12.6865 29.9697L9.11523 12.6777L19.6865 22.3223ZM27.3398 13.9053L20.335 21.5586L9.76367 11.918L27.3398 13.9053ZM41.4414 13.7832L28.7021 12.9092L34.0605 7.05176L41.4414 13.7832ZM41.4756 12.2666L34.833 6.20898L40.5186 0L41.4756 12.2666Z" fill="url(#paint0_linear_619_200)"/>
<defs>
<linearGradient id="paint0_linear_619_200" x1="64.0117" y1="64.8169" x2="0.100511" y2="6.29866" gradientUnits="userSpaceOnUse">
<stop stop-color="#3921F5"/>
<stop offset="0.729132" stop-color="#00CCBE"/>
</linearGradient>
</defs>
</svg>
