<?xml version="1.0" encoding="UTF-8"?>
<svg id="Capa_1" xmlns="http://www.w3.org/2000/svg" version="1.1" viewBox="0 0 590.41 596.48">
  <!-- Generator: Adobe Illustrator 30.1.0, SVG Export Plug-In . SVG Version: 2.1.1 Build 136)  -->
  <g>
    <g>
      <path d="M11.7,204.14l5.17-13.88c1.97-5.28,6.34-7.1,10.75-5.46,4.45,1.66,6.53,5.96,4.59,11.17l-3.49,9.36,8.96,3.34-1.68,4.52-24.31-9.06ZM28.07,194.97c.95-2.55.16-4.67-2.17-5.54-2.3-.85-4.28.23-5.23,2.78l-3.31,8.89,7.4,2.76,3.31-8.89Z"/>
      <path d="M23.87,173.53l2.14-4.32,19.44,9.64,6.26-12.61,3.8,1.88-8.4,16.93-23.24-11.52Z"/>
      <path d="M41.4,141.15l3.17-4.99,28.03,4.24-2.85,4.5-5.28-.91-7.5,11.82,3.07,4.39-2.85,4.5-15.78-23.56ZM59.93,143.24l-13.34-2.29,7.75,11.09,5.58-8.8Z"/>
      <path d="M55.65,119.78l3.17-3.89,24.39-.19-14.57-11.87,3.02-3.71,20.12,16.39-2.95,3.62-24.96.14,14.93,12.16-3.05,3.74-20.12-16.39Z"/>
      <path d="M90.37,80.95l11.9-10.37c3.72-3.24,7.78-2.86,10.18-.1,2.12,2.43,1.9,5.62.33,7.6,2.45-1.57,6.06-1.1,8.15,1.3,2.63,3.02,2.45,7.2-1.33,10.49l-12.2,10.63-17.04-19.56ZM108.62,79.22c1.79-1.56,1.95-3.45.69-4.89-1.28-1.47-3.15-1.54-4.93.02l-7.59,6.62,4.24,4.87,7.6-6.62ZM116,87.39c1.93-1.69,2.21-3.68.8-5.29-1.33-1.53-3.39-1.64-5.35.07l-7.74,6.75,4.55,5.22,7.74-6.75Z"/>
      <path d="M198.29,15.8l15.12-4.52c4.73-1.41,8.26.61,9.3,4.11.92,3.09-.59,5.9-2.84,7.06,2.88-.41,5.97,1.5,6.88,4.56,1.15,3.84-.74,7.57-5.54,9l-15.49,4.63-7.43-24.84ZM215.61,21.78c2.27-.68,3.2-2.34,2.65-4.16-.56-1.86-2.23-2.7-4.5-2.02l-9.65,2.88,1.85,6.18,9.65-2.88ZM218.95,32.26c2.46-.73,3.53-2.44,2.92-4.48-.58-1.94-2.41-2.89-4.9-2.15l-9.83,2.94,1.98,6.63,9.83-2.94Z"/>
      <path d="M239.75,5.1l5.82-1.03,15.77,23.55-5.25.93-2.89-4.5-13.79,2.44-1.17,5.22-5.25.93,6.74-27.53ZM250.71,20.18l-7.31-11.38-2.96,13.2,10.26-1.82Z"/>
      <path d="M264.38,23.27l2.56-3.75c2.31,1.95,5.88,3.47,10.07,3.2,4.35-.28,6.3-1.97,6.18-3.84-.16-2.41-3.03-2.8-7.38-3.18-5.53-.49-11.15-1.29-11.53-7.04-.3-4.5,3.84-7.97,10.6-8.41,4.77-.31,8.71.87,11.64,3.29l-2.6,3.68c-2.27-1.84-5.42-2.92-9.14-2.67-3.69.24-5.67,1.54-5.55,3.4.14,2.1,2.7,2.51,7.29,2.95,5.53.57,11.24,1.41,11.62,7.15.29,4.46-3.31,8.44-11.07,8.95-5.43.36-10.12-1.48-12.68-3.73Z"/>
      <path d="M296.27,0l4.82.08-.42,25.94-4.82-.08.42-25.94Z"/>
      <path d="M309.39,13.06c.77-8.01,7.56-12.75,16.27-11.91,6.15.59,9.81,3.64,11.69,7.22l-4.21,1.94c-1.46-2.72-4.05-4.57-7.89-4.94-5.88-.57-10.39,2.79-10.91,8.17-.52,5.38,3.26,9.5,9.15,10.07,3.79.37,6.73-.91,8.51-3.2l3.92,2.68c-2.56,3.07-6.73,5.37-12.85,4.78-8.71-.84-14.46-6.83-13.69-14.8Z"/>
      <path d="M342.96,16.65c1.73-7.74,8.77-11.78,17.34-9.87,8.61,1.93,13.22,8.57,11.49,16.31-1.72,7.7-8.73,11.79-17.34,9.87-8.58-1.92-13.21-8.61-11.49-16.31ZM355.38,28.79c5.81,1.3,10.42-1.53,11.59-6.77,1.17-5.24-1.79-9.8-7.6-11.1-5.81-1.3-10.39,1.58-11.56,6.82s1.76,9.76,7.57,11.05Z"/>
      <path d="M375.41,33.5l3.83-2.44c1.35,2.71,4.04,5.51,8,6.91,4.11,1.45,6.57.67,7.19-1.09.8-2.27-1.68-3.77-5.53-5.83-4.89-2.63-9.75-5.58-7.83-11.01,1.5-4.26,6.67-5.81,13.06-3.56,4.51,1.59,7.66,4.23,9.4,7.61l-3.84,2.36c-1.36-2.58-3.83-4.82-7.35-6.06-3.48-1.23-5.82-.82-6.44.94-.7,1.98,1.49,3.37,5.54,5.58,4.86,2.71,9.78,5.72,7.86,11.15-1.49,4.22-6.36,6.46-13.7,3.87-5.14-1.81-8.72-5.35-10.19-8.42Z"/>
      <path d="M428.22,31.22l18.56,10.08-2.02,3.73-14.32-7.78-3.04,5.6,13.91,7.56-2.02,3.73-13.91-7.56-3.27,6.01,14.32,7.78-2.03,3.72-18.56-10.08,12.39-22.79Z"/>
      <path d="M441.68,63.73l4.34-1.35c.6,2.97,2.45,6.37,5.91,8.76,3.59,2.47,6.17,2.36,7.23.83,1.37-1.98-.63-4.08-3.81-7.07-4.03-3.82-7.94-7.94-4.67-12.68,2.56-3.71,7.96-3.86,13.53-.02,3.94,2.72,6.29,6.09,7.08,9.8l-4.32,1.27c-.63-2.85-2.43-5.65-5.51-7.77-3.04-2.1-5.4-2.31-6.46-.77-1.19,1.73.56,3.64,3.88,6.84,3.98,3.88,7.94,8.08,4.67,12.82-2.54,3.68-7.83,4.57-14.23.15-4.48-3.09-7.01-7.44-7.62-10.79Z"/>
      <path d="M481.47,65.39l16.02,13.76-2.76,3.21-12.36-10.62-4.16,4.84,12.01,10.31-2.76,3.21-12.01-10.31-4.46,5.19,12.36,10.62-2.76,3.21-16.02-13.76,16.9-19.67Z"/>
      <path d="M504.97,86.25l3.41,3.68-3.21,24.17,13.77-12.76,3.25,3.51-19.02,17.62-3.17-3.42,3.34-24.71-14.12,13.08-3.28-3.54,19.02-17.62Z"/>
      <path d="M518.13,120.24c6.52-4.72,14.56-2.77,19.7,4.31,3.63,5.01,3.76,9.76,2.32,13.54l-4.24-1.87c1.07-2.89.74-6.06-1.52-9.18-3.47-4.79-8.96-5.94-13.34-2.77-4.38,3.17-4.96,8.73-1.49,13.52,2.24,3.09,5.14,4.44,8.04,4.26l.59,4.72c-4,.11-8.48-1.49-12.09-6.47-5.14-7.08-4.46-15.36,2.03-20.06Z"/>
      <path d="M549.12,142.34l2.49,4.13-22.21,13.39-2.49-4.13,22.21-13.39Z"/>
      <path d="M560.94,163.44l2.62,5.3-18.19,21.75-2.36-4.78,3.51-4.04-6.21-12.55-5.34.34-2.36-4.78,28.33-1.25ZM549.53,178.19l8.88-10.21-13.5.86,4.62,9.34Z"/>
      <path d="M571.6,186.67l1.67,4.52-20.35,7.52,4.88,13.2-3.97,1.47-6.55-17.73,24.33-8.99Z"/>
      <path d="M580.93,213.28l5.31,20.43-4.1,1.06-4.1-15.77-6.17,1.6,3.98,15.32-4.1,1.07-3.98-15.32-6.62,1.72,4.09,15.77-4.1,1.07-5.31-20.43,25.1-6.52Z"/>
      <path d="M566.37,245.27l3.95,2.25c-1.76,2.46-2.98,6.14-2.37,10.3.64,4.31,2.48,6.12,4.32,5.85,2.39-.35,2.55-3.25,2.57-7.61.04-5.55.38-11.22,6.08-12.06,4.46-.66,8.25,3.18,9.24,9.87.7,4.73-.16,8.75-2.33,11.86l-3.88-2.3c1.65-2.41,2.47-5.63,1.92-9.32-.54-3.65-2-5.52-3.84-5.25-2.08.31-2.29,2.89-2.35,7.5-.12,5.56-.49,11.31-6.18,12.16-4.42.65-8.68-2.61-9.82-10.3-.8-5.39.65-10.2,2.69-12.94Z"/>
    </g>
    <g>
      <path d="M25.47,338.59l2.99,15.5c.94,4.85-1.44,8.16-5.03,8.85-3.17.61-5.81-1.18-6.74-3.53.13,2.91-2.09,5.79-5.22,6.39-3.93.76-7.46-1.49-8.41-6.42l-3.06-15.89,25.47-4.91ZM7.02,357.52c.48,2.52,2.07,3.76,4.17,3.35,1.99-.38,3.12-2.11,2.62-4.66l-1.94-10.08-6.8,1.31,1.95,10.08ZM17.79,355.25c.45,2.33,2,3.41,3.88,3.05,1.91-.37,2.91-1.95,2.46-4.28l-1.91-9.89-6.34,1.22,1.91,9.89Z"/>
      <path d="M34.43,377.38l1.78,5.64-21.28,18.72-1.61-5.08,4.09-3.46-4.22-13.34-5.33-.48-1.61-5.08,28.17,3.07ZM20.92,390.22l10.33-8.73-13.47-1.2,3.14,9.93Z"/>
      <path d="M20.94,405.79l4.4,1.12c-1.04,2.84-1.24,6.71.45,10.55,1.76,3.98,4.02,5.24,5.72,4.49,2.2-.97,1.59-3.8.45-8.02-1.43-5.36-2.61-10.92,2.65-13.24,4.13-1.82,8.8.87,11.54,7.06,1.93,4.38,2.17,8.48.9,12.06l-4.35-1.18c.95-2.76.88-6.09-.63-9.5-1.49-3.38-3.39-4.79-5.1-4.04-1.92.85-1.43,3.4-.27,7.86,1.36,5.39,2.54,11.04-2.73,13.36-4.09,1.81-9.06-.21-12.2-7.32-2.2-4.98-2.08-10.01-.85-13.18Z"/>
      <path d="M54.18,425.27l2.29,4.24-22.82,12.34-2.29-4.24,22.82-12.34Z"/>
      <path d="M49.01,443.21c6.73-4.41,14.68-2.09,19.48,5.23,3.39,5.17,3.3,9.93,1.68,13.64l-4.15-2.07c1.21-2.84,1.03-6.02-1.08-9.24-3.24-4.95-8.68-6.36-13.2-3.39s-5.36,8.49-2.12,13.44c2.09,3.19,4.93,4.68,7.83,4.64l.36,4.74c-4-.08-8.4-1.89-11.77-7.03-4.8-7.32-3.73-15.55,2.97-19.95Z"/>
      <path d="M67.82,471.26c6.05-5.13,14.1-4.12,19.79,2.58,5.71,6.73,5.39,14.81-.66,19.94-6.02,5.11-14.08,4.15-19.79-2.58-5.69-6.7-5.35-14.84.66-19.94ZM70.42,488.44c3.85,4.53,9.24,5.06,13.33,1.58s4.48-8.9.63-13.44c-3.85-4.53-9.25-5-13.34-1.53s-4.47,8.85-.62,13.38Z"/>
      <path d="M85.76,505.15l4.49-.71c.17,3.02,1.51,6.66,4.58,9.52,3.19,2.97,5.76,3.23,7.03,1.87,1.64-1.76-.04-4.13-2.75-7.55-3.43-4.36-6.71-9.01-2.79-13.22,3.07-3.3,8.44-2.67,13.39,1.94,3.5,3.26,5.34,6.93,5.59,10.72l-4.46.63c-.21-2.91-1.59-5.94-4.32-8.48-2.71-2.52-5.01-3.07-6.28-1.7-1.43,1.54.02,3.69,2.85,7.33,3.38,4.42,6.69,9.14,2.77,13.36-3.05,3.28-8.41,3.39-14.11-1.91-3.99-3.71-5.86-8.38-5.99-11.78Z"/>
      <path d="M134.82,518.5l17.51,11.79-2.37,3.52-13.51-9.1-3.56,5.29,13.13,8.84-2.37,3.52-13.13-8.84-3.82,5.68,13.52,9.1-2.37,3.51-17.51-11.79,14.48-21.51Z"/>
      <path d="M147.05,552.62l4.14-1.86c.94,2.87,3.19,6.04,6.9,8,3.85,2.03,6.4,1.62,7.27-.03,1.13-2.13-1.11-3.97-4.62-6.57-4.45-3.32-8.82-6.94-6.13-12.03,2.11-3.99,7.45-4.77,13.43-1.62,4.23,2.23,6.96,5.3,8.19,8.89l-4.14,1.77c-.97-2.75-3.08-5.32-6.38-7.06-3.27-1.72-5.63-1.65-6.51,0-.98,1.86.98,3.55,4.66,6.33,4.41,3.38,8.84,7.08,6.15,12.17-2.09,3.95-7.23,5.46-14.11,1.83-4.81-2.54-7.84-6.56-8.84-9.81Z"/>
      <path d="M184.84,547.33l19.62,7.81-1.57,3.94-15.14-6.02-2.36,5.92,14.7,5.85-1.57,3.94-14.7-5.85-2.53,6.36,15.14,6.03-1.57,3.94-19.62-7.81,9.59-24.1Z"/>
      <path d="M211.44,557.58l4.84,1.31,10.1,22.19,4.91-18.12,4.62,1.25-6.78,25.03-4.5-1.22-10.28-22.72-5.03,18.58-4.65-1.26,6.78-25.03Z"/>
      <path d="M240.85,578.47c1.15-7.97,8.15-12.39,16.81-11.14,6.12.88,9.63,4.1,11.34,7.77l-4.3,1.74c-1.33-2.79-3.83-4.76-7.65-5.31-5.85-.84-10.51,2.3-11.28,7.65-.77,5.35,2.82,9.64,8.67,10.48,3.77.55,6.77-.6,8.66-2.8l3.79,2.87c-2.71,2.95-6.98,5.05-13.06,4.17-8.66-1.25-14.13-7.5-12.99-15.43Z"/>
      <path d="M276.36,569.69l4.81.28-1.51,25.89-4.81-.28,1.51-25.89Z"/>
      <path d="M298.37,570.28l5.91-.14,12.04,25.67-5.33.13-2.18-4.89-14,.33-1.95,4.99-5.33.13,10.83-26.2ZM306.93,586.84l-5.5-12.36-4.92,12.6,10.42-.24Z"/>
      <path d="M321.16,569.18l4.78-.61,2.75,21.52,13.96-1.78.54,4.2-18.75,2.39-3.28-25.73Z"/>
      <path d="M346.52,565.58l20.58-4.76.95,4.13-15.88,3.67,1.44,6.22,15.43-3.57.95,4.13-15.43,3.57,1.54,6.67,15.88-3.67.96,4.13-20.58,4.76-5.84-25.28Z"/>
      <path d="M379.87,579.94l1.47-4.3c2.75,1.27,6.59,1.79,10.56.42,4.12-1.43,5.56-3.57,4.94-5.34-.79-2.28-3.66-1.9-7.96-1.11-5.46.99-11.1,1.71-12.99-3.73-1.48-4.26,1.59-8.71,7.99-10.92,4.52-1.57,8.63-1.47,12.09.09l-1.54,4.24c-2.67-1.18-5.99-1.38-9.52-.16-3.49,1.21-5.06,2.99-4.45,4.75.69,1.98,3.27,1.71,7.81.92,5.49-.91,11.21-1.62,13.1,3.82,1.46,4.23-.95,9.02-8.3,11.57-5.14,1.78-10.15,1.25-13.21-.24Z"/>
      <path d="M473.24,504.01l10.8-10.15c4.11-3.86,8.83-3.55,12.05-.12,3.25,3.46,3.21,8.25-.84,12.05l-7.28,6.84,6.55,6.97-3.51,3.3-17.76-18.91ZM491.98,503.05c1.98-1.87,2.22-4.11.52-5.93-1.68-1.78-3.94-1.69-5.92.17l-6.92,6.5,5.41,5.75,6.91-6.5Z"/>
      <path d="M494.91,482.92l3.16-3.64,16.38,14.22,9.22-10.63,3.2,2.78-12.39,14.27-19.58-17Z"/>
      <path d="M516.34,456.41l3.39-4.84,27.81,5.51-3.05,4.37-5.23-1.14-8.03,11.47,2.87,4.52-3.06,4.37-14.7-24.25ZM534.76,459.33l-13.22-2.89,7.24,11.43,5.98-8.54Z"/>
      <path d="M529.03,437.57l2.37-4.42,23.9-4.84-16.56-8.87,2.26-4.22,22.86,12.25-2.2,4.11-24.46,4.9,16.97,9.09-2.28,4.25-22.86-12.25Z"/>
      <path d="M549.7,394.68l4.96-14.99c1.55-4.69,5.24-6.42,8.71-5.27,3.06,1.01,4.5,3.86,4.16,6.37,1.31-2.6,4.65-4.03,7.68-3.03,3.8,1.26,5.78,4.95,4.2,9.71l-5.08,15.36-24.63-8.15ZM564.53,383.9c.75-2.25-.08-3.96-1.89-4.56-1.85-.61-3.49.28-4.24,2.53l-3.16,9.57,6.13,2.03,3.16-9.57ZM575.05,387.17c.81-2.44.03-4.29-2-4.97-1.92-.63-3.75.32-4.57,2.79l-3.23,9.75,6.57,2.17,3.23-9.75Z"/>
    </g>
  </g>
  <path d="M346.02,294.07c14.65-2.61,34.01,2.15,40.43,17.09,3.19,7.41,2.13,16.26-1.9,23.25-7.22,12.54-21.84,18-35.48,19.81-13.59,1.81-28.47-.98-41.62,2.74-8.05,2.28-15.62,8.16-17.46,16.32-2.64,11.72,7.09,22.19,17.4,25.94,37.01,13.47,88.15-16.19,105.94-48.36,12-21.71,9.42-50.95-10.77-66.95-14.3-11.34-34.97-14.47-53.71-11.47-22.73,3.63-38.99,16.75-59.44,25.31-11.8,4.94-27.48-6.7-12.52-15.25,4.27-2.44,9.47-3.07,14.44-3.91,31.17-5.25,81.64-33.76,58.88-72.62-9.84-16.8-30.14-27.07-48.96-29.51-31.91-4.14-67.56,7.22-90.81,29.19-45.77,43.24-52.3,118.44-22.28,172.01,5.82,10.39,16.47,22.64,29,24.36,11.81,1.62,23.49-6.8,28.51-16.97,7.47-15.15,4.08-33.73-5.96-46.76-9.13-11.84-22.38-19.95-30.04-33.01-17.46-29.76,5.77-76.43,34.29-90.42,16.25-7.98,35.75-8.54,52.36-1.43,12.38,5.3,28.77,16.88,21.14,32.41-2.59,5.27-7.34,9.24-12.56,11.95-17.02,8.82-41.58,9.57-49.03,30.83-2.91,8.3-.28,17.61,6.49,23.21,10.22,8.45,25.01,8.31,37.47,3.78,7.45-2.71,14.02-7.32,21.01-11.05,8.52-4.54,15.67-8.8,25.17-10.49Z"/>
</svg>