<?xml version="1.0" encoding="UTF-8"?>
<svg id="Capa_1" xmlns="http://www.w3.org/2000/svg" version="1.1" viewBox="0 0 511.76 503.16">
  <!-- Generator: Adobe Illustrator 30.1.0, SVG Export Plug-In . SVG Version: 2.1.1 Build 136)  -->
  <path d="M353.44,141.79c2.18,8.46,2.9,17.43,1.86,26.71-5.5,49.01-52.07,63.25-94.85,64.14-62.38,1.3-120.82,1.49-178.77,29.02-21.38,10.16-41.93,23.01-57.35,40.97-73.04,85.04,34.04,170.04,114.06,184.01,89.25,15.58,185.57-30.71,224.02-113.77,18.24-39.4,23.09-85,42.28-123.26,5.31-10.59,21.95-5.23,19.87,6.44-.02.1-.04.2-.05.3-1.83,9.88-6.55,18.95-10.75,28.08-14.77,32.17-23.51,67.09-25.64,102.42-1.41,23.43.19,47.58,9.58,69.09,11.77,26.99,37.33,49.39,68.61,47.06,10.17-.75,20.09-4.47,28.03-10.87,24.59-19.82,19.94-51.62,5.61-74.43-10.76-17.14-26.35-30.58-40.47-45.08-14.12-14.5-27.38-31.12-31.48-50.94-6.66-32.17,12.06-64.4,11.41-97.25-.18-9.15-2.67-19.44-10.63-23.95-7.2-4.08-16.66-1.8-23.17,3.31-6.51,5.11-10.73,12.52-14.79,19.73-13.15,23.4-26.31,46.81-39.46,70.21-16.61,29.55-33.39,59.35-55.87,84.73-22.48,25.37-51.4,46.32-84.57,53.29-41.71,8.77-90.37-7.66-106.66-50.72-5.48-14.48-6.02-30.64-1.2-45.35,10.71-32.68,40.35-42.79,68.66-49.2,33.84-7.66,68.55-11.6,101.81-21.49,33.26-9.88,65.86-26.59,86.68-54.35,29.8-39.75,29.36-98.07,3.01-140.19C336.89,28.32,287.82,2.85,238.21.24s-99.05,16.11-138.19,46.71c-26.22,20.5-49.21,48.01-52.15,81.92-1.35,15.62,2.36,31.54,11.16,44.52,22.86,33.74,63.36,28.79,90.63,9.67,25.74-18.05,40.64-44.46,57.4-70.17,15.93-24.43,37.25-37.49,67.07-35.07,36.59,2.97,70.33,29.09,79.32,63.97Z"/>
</svg>