<?xml version="1.0" encoding="UTF-8"?>
<svg id="Capa_1" xmlns="http://www.w3.org/2000/svg" version="1.1" viewBox="0 0 824.05 571.71">
  <!-- Generator: Adobe Illustrator 30.1.0, SVG Export Plug-In . SVG Version: 2.1.1 Build 136)  -->
  <path d="M790.94,353.26c-26.33-20.87-64.39-26.63-98.89-21.12-41.84,6.69-71.79,30.83-109.44,46.6-21.73,9.1-50.59-12.34-23.05-28.08,7.87-4.5,17.43-5.66,26.59-7.2,57.38-9.66,150.32-62.16,108.41-133.71-18.12-30.94-55.5-49.84-90.15-54.33-48.74-6.32-100.24,6.49-141.24,33.34-23.89,15.64-42.62,36.43-59.08,59.58-14.73,20.71-27.84,42.57-43.4,62.66-7.46,9.63-15.51,18.88-24.83,26.76-9.65,8.17-20.32,12.72-32.55,15.87-24.58,6.34-51.21,4.58-74.58-5.43-22.79-9.76-52.98-31.07-38.92-59.66,4.78-9.71,13.52-17.02,23.13-22,31.34-16.24,76.55-17.61,90.28-56.77,5.36-15.29.52-32.43-11.96-42.74-18.82-15.56-46.04-15.3-68.99-6.96-13.71,4.98-25.81,13.48-38.69,20.34-15.69,8.36-28.84,16.19-46.35,19.32-26.97,4.81-62.62-3.96-74.45-31.47-5.86-13.64-3.92-29.94,3.49-42.8,13.29-23.08,40.2-33.14,65.32-36.48,25.01-3.33,52.42,1.81,76.63-5.04,14.82-4.19,28.77-15.02,32.15-30.05,4.85-21.58-13.05-40.85-32.04-47.76C140.18-18.67,46.01,35.94,13.27,95.18c-22.09,39.97-17.34,93.81,19.83,123.27,26.33,20.87,64.39,26.63,98.89,21.12,41.84-6.69,71.79-30.83,109.44-46.6,21.73-9.1,50.59,12.34,23.05,28.08-7.87,4.5-17.43,5.66-26.59,7.2-57.38,9.66-150.32,62.16-108.41,133.71,18.12,30.94,55.5,49.84,90.15,54.33,47.57,6.17,97.7-5.9,138.17-31.36,20.24-12.73,37.55-29.05,51.95-48.1,15.1-19.96,27.41-41.81,41.37-62.54,8.3-12.33,17.27-24.34,28.26-34.33,30.71-27.91,78.41-32.51,115.93-16.44,22.79,9.76,52.98,31.07,38.92,59.66-4.78,9.71-13.52,17.02-23.13,22-31.35,16.24-76.55,17.61-90.28,56.77-5.36,15.29-.52,32.43,11.96,42.74,18.82,15.56,46.04,15.3,68.99,6.96,13.71-4.98,25.81-13.48,38.69-20.34,15.69-8.36,28.84-16.19,46.35-19.32,26.97-4.81,62.62,3.96,74.45,31.47,5.86,13.64,3.92,29.94-3.49,42.8-13.29,23.08-40.2,33.14-65.32,36.48-25.01,3.33-52.42-1.81-76.63,5.04-14.82,4.19-28.77,15.02-32.15,30.05-4.85,21.58,13.05,40.85,32.04,47.76,68.14,24.8,162.3-29.81,195.05-89.05,22.09-39.97,17.34-93.81-19.83-123.27Z"/>
</svg>