<?xml version="1.0" encoding="UTF-8"?>
<svg id="Capa_1" xmlns="http://www.w3.org/2000/svg" version="1.1" viewBox="0 0 441.58 547.13">
  <!-- Generator: Adobe Illustrator 30.1.0, SVG Export Plug-In . SVG Version: 2.1.1 Build 136)  -->
  <path d="M160.08,488.31c12.45,10.62,26.87,18.64,45.7,21.13,47.85,6.35,100.03-37.86,84.15-88.59-6.7-21.41-25.07-37.01-43.91-49.19-26.29-17.01-55.15-29.83-80.93-47.61-18.02-12.42-34.82-27.94-45.96-46.52-22.28-37.15-10.37-86.96,27.04-108.8,20.23-11.82,42.79-12.61,65.48-11.17,11.62.74,23.88.62,34.08-5,10.33-5.69,7.32-14.57-2.08-18.39-7.68-3.12-16.67-2.39-24.77-2.81-34.16-1.77-68.3,9.3-102.67,10.44-28.75.95-65.02-7.07-75.57-37.95-6.78-19.83,1.55-42.49,16.21-57.46,14.67-14.97,34.65-23.48,54.65-29.75C200.13-11.15,296.95-1.38,385.78,25.72c21.82,6.66,45.91,16.77,53.64,38.23,7.36,20.43-4.9,44.7-24.38,54.3-19.48,9.61-43.71,6.07-62.16-5.38-31.69-19.67-47.48-58.95-79.81-77.56-26.05-14.99-58.21-13.84-87.93-9.33-24.78,3.76-49.58,9.68-71.62,21.61-16.38,8.87-32.18,23.13-33.53,41.71-.48,6.59,1.09,13.54,5.37,18.58,7.67,9.05,21.26,9.64,33.09,8.8,45-3.19,93.79-19.3,138.6-6.93,16.22,4.48,34.24,16.69,34.01,35.43-.3,25.18-28.33,34.07-48.9,34.45-20.53.38-39.66.52-56.67,13.55-14.59,11.17-24.87,28.28-26.55,46.7-2.79,30.56,16,59.42,39.38,79.3,23.38,19.88,51.49,33.28,76.56,50.97,27.01,19.06,52.11,45.89,46.1,82.83-1.9,11.7-7.25,22.54-14.07,32.24-43.32,61.57-126.74,69.59-195.51,56.64-44.15-8.31-150.77-64.86-96.25-123.43,17-18.26,47.48-17.18,69.2-4.89,31.78,17.99,49.29,52.24,75.71,74.77Z"/>
</svg>