<?xml version="1.0" encoding="UTF-8"?>
<svg id="Capa_1" xmlns="http://www.w3.org/2000/svg" version="1.1" viewBox="0 0 461.57 417.83">
  <!-- Generator: Adobe Illustrator 30.1.0, SVG Export Plug-In . SVG Version: 2.1.1 Build 136)  -->
  <path d="M324.35,218.09c26.97-4.81,62.62,3.96,74.45,31.47,5.86,13.64,3.92,29.94-3.49,42.8-13.29,23.08-40.2,33.14-65.32,36.48-25.01,3.33-52.42-1.81-76.63,5.04-14.82,4.19-28.77,15.02-32.15,30.05-4.85,21.58,13.05,40.85,32.04,47.77,68.14,24.8,162.3-29.81,195.05-89.05,22.09-39.97,17.34-93.81-19.83-123.27-26.33-20.88-64.39-26.63-98.89-21.12-41.84,6.69-71.79,30.83-109.45,46.6-21.73,9.1-50.59-12.34-23.05-28.08,7.87-4.5,17.43-5.66,26.58-7.2,57.38-9.66,150.32-62.16,108.41-133.71-18.12-30.94-55.5-49.84-90.15-54.33-58.75-7.62-124.38,13.3-167.19,53.74C-9.54,134.9-21.56,273.36,33.71,371.99c10.71,19.12,30.32,41.68,53.39,44.85,21.75,2.99,43.25-12.52,52.49-31.25,13.76-27.89,7.52-62.11-10.97-86.09-16.8-21.8-41.2-36.72-55.31-60.77-32.15-54.8,10.62-140.71,63.13-166.48,29.92-14.69,65.83-15.73,96.41-2.63,22.79,9.76,52.98,31.07,38.92,59.66-4.78,9.71-13.52,17.02-23.13,22-31.35,16.24-76.55,17.61-90.28,56.77-5.36,15.29-.52,32.43,11.96,42.74,18.82,15.56,46.04,15.3,68.99,6.96,13.71-4.98,25.81-13.48,38.69-20.34,15.69-8.36,28.84-16.19,46.35-19.32Z"/>
</svg>