<?xml version="1.0" encoding="UTF-8"?>
<svg id="Capa_1" xmlns="http://www.w3.org/2000/svg" version="1.1" viewBox="0 0 432.53 531.47">
  <!-- Generator: Adobe Illustrator 30.1.0, SVG Export Plug-In . SVG Version: 2.1.1 Build 136)  -->
  <g>
    <path d="M68.23,478.13c-4.88-3.27-11.51-4.91-19.89-4.91H0v58.25h15.14v-16.64h33.54c6.43,0,11.63-.8,15.6-2.41,3.96-1.61,6.84-3.98,8.61-7.12,1.77-3.13,2.66-7.03,2.66-11.69,0-7.04-2.44-12.2-7.32-15.48ZM59.37,500.31c-.97,1.58-2.45,2.76-4.45,3.54-2,.78-4.61,1.14-7.82,1.08H15.14v-21.22h32.29c4.66,0,8.06.78,10.19,2.33s3.2,4.16,3.2,7.82c0,2.72-.49,4.87-1.46,6.45Z"/>
    <polygon points="98.44 473.22 83.29 473.22 83.29 531.47 145.29 531.47 145.29 521.24 98.44 521.24 98.44 473.22"/>
    <path d="M183.23,473.22l-34.87,58.25h16.39l7.74-13.98h39.88l7.72,13.98h16.23l-34.62-58.25h-18.47ZM178.03,507.51l13.69-24.71h1.5l13.65,24.71h-28.83Z"/>
    <polygon points="308.21 515.35 256.54 473.22 241.48 473.22 241.48 531.47 255.46 531.47 255.46 488.61 307.3 531.47 322.19 531.47 322.19 473.22 308.21 473.22 308.21 515.35"/>
    <path d="M430.12,508.3c-1.61-1.91-3.8-3.31-6.57-4.2-2.78-.89-6.1-1.41-9.99-1.58v-.58c4.66-.33,8.45-1.62,11.36-3.87,2.91-2.25,4.37-5.59,4.37-10.03,0-3.66-1.07-6.57-3.2-8.74-2.14-2.16-5.08-3.72-8.82-4.66-3.74-.94-8.34-1.41-13.77-1.41h-49.18v58.25h49.76c6.27,0,11.5-.55,15.68-1.66,4.19-1.11,7.36-2.84,9.53-5.2,2.16-2.36,3.25-5.31,3.25-8.86,0-3.05-.81-5.53-2.41-7.45ZM410.52,484.33c2.08,1.03,3.12,2.82,3.12,5.37,0,2.77-1.14,4.76-3.41,5.95-2.28,1.19-5.63,1.79-10.07,1.79h-30.71v-14.65h31.46c4.33,0,7.53.51,9.61,1.54ZM413.18,519.99c-2.25,1.22-5.87,1.83-10.86,1.83h-32.87v-14.81h32.2c5.05,0,8.79.54,11.24,1.62,2.44,1.08,3.66,2.93,3.66,5.53s-1.12,4.6-3.37,5.82Z"/>
  </g>
  <path d="M303.94,204.37c25.28-4.51,58.68,3.71,69.76,29.49,5.5,12.78,3.67,28.06-3.27,40.11-12.45,21.63-37.67,31.05-61.21,34.19-23.44,3.12-49.12-1.7-71.81,4.72-13.89,3.93-26.96,14.08-30.13,28.16-4.55,20.22,12.23,38.28,30.02,44.76,63.85,23.24,152.09-27.93,182.78-83.44,20.7-37.46,16.25-87.9-18.59-115.52-24.68-19.56-60.34-24.96-92.67-19.79-39.21,6.27-67.27,28.89-102.56,43.67-20.36,8.53-47.41-11.57-21.6-26.32,7.38-4.21,16.33-5.3,24.91-6.75,53.77-9.05,140.86-58.25,101.58-125.29-16.98-28.99-52.01-46.7-84.48-50.91-55.05-7.14-116.56,12.46-156.67,50.36C-8.94,126.41-20.2,256.16,31.59,348.59c10.04,17.92,28.41,39.06,50.03,42.03,20.38,2.8,40.53-11.73,49.19-29.29,12.89-26.14,7.05-58.2-10.28-80.67-15.75-20.42-38.6-34.41-51.83-56.95-30.13-51.35,9.96-131.86,59.16-156.01,28.04-13.76,61.69-14.74,90.35-2.46,21.36,9.15,49.65,29.12,36.47,55.91-4.48,9.1-12.67,15.95-21.67,20.61-29.37,15.22-71.73,16.5-84.6,53.2-5.02,14.33-.49,30.39,11.21,40.05,17.63,14.58,43.15,14.34,64.65,6.52,12.85-4.67,24.19-12.64,36.26-19.06,14.7-7.83,27.03-15.17,43.43-18.1Z"/>
</svg>