<?xml version="1.0" encoding="UTF-8"?>
<svg id="Capa_1" xmlns="http://www.w3.org/2000/svg" version="1.1" viewBox="0 0 893.27 427.14">
  <!-- Generator: Adobe Illustrator 30.1.0, SVG Export Plug-In . SVG Version: 2.1.1 Build 136)  -->
  <g>
    <path d="M140.92,10.14C130.83,3.38,117.14,0,99.85,0H0v120.29h31.28v-34.37h69.26c13.28,0,24.03-1.66,32.22-4.98,8.19-3.32,14.12-8.22,17.79-14.69,3.66-6.47,5.5-14.52,5.5-24.14,0-14.55-5.04-25.2-15.12-31.96ZM122.61,55.94c-2.01,3.27-5.07,5.7-9.19,7.3-4.12,1.61-9.51,2.35-16.15,2.23H31.28V21.65h66.68c9.63,0,16.64,1.6,21.05,4.81s6.62,8.59,6.62,16.15c0,5.61-1,10.05-3.01,13.32Z"/>
    <polygon points="203.3 0 172.02 0 172.02 120.29 300.05 120.29 300.05 99.15 203.3 99.15 203.3 0"/>
    <path d="M378.41,0l-72.01,120.29h33.85l15.99-28.87h82.35l15.94,28.87h33.51L416.56,0h-38.15ZM367.67,70.8l28.27-51.04h3.09l28.18,51.04h-59.54Z"/>
    <polygon points="636.53 87 529.81 0 498.7 0 498.7 120.29 527.57 120.29 527.57 31.78 634.63 120.29 665.4 120.29 665.4 0 636.53 0 636.53 87"/>
    <path d="M888.28,72.43c-3.32-3.95-7.85-6.84-13.58-8.68-5.73-1.83-12.6-2.92-20.62-3.26v-1.2c9.62-.69,17.44-3.35,23.46-7.99,6.01-4.64,9.02-11.54,9.02-20.71,0-7.56-2.2-13.58-6.61-18.04-4.42-4.47-10.49-7.68-18.22-9.63-7.73-1.95-17.22-2.92-28.44-2.92h-101.56v120.29h102.76c12.94,0,23.74-1.14,32.39-3.44,8.65-2.29,15.21-5.87,19.68-10.74s6.71-10.97,6.71-18.3c0-6.3-1.66-11.43-4.99-15.38ZM847.81,22.94c4.3,2.12,6.44,5.82,6.44,11.08,0,5.73-2.35,9.83-7.04,12.29-4.7,2.47-11.63,3.7-20.8,3.7h-63.41v-30.25h64.96c8.94,0,15.55,1.06,19.85,3.18ZM853.31,96.58c-4.64,2.52-12.12,3.78-22.43,3.78h-67.88v-30.59h66.51c10.43,0,18.16,1.12,23.21,3.35,5.03,2.23,7.56,6.05,7.56,11.43s-2.32,9.51-6.96,12.03Z"/>
  </g>
  <path d="M466.01,385.77c5.59-1,12.97.82,15.42,6.52,1.21,2.82.81,6.2-.72,8.87-2.75,4.78-8.33,6.86-13.53,7.56-5.18.69-10.86-.37-15.87,1.04-3.07.87-5.96,3.11-6.66,6.23-1.01,4.47,2.7,8.46,6.64,9.89,14.11,5.14,33.62-6.17,40.4-18.45,4.58-8.28,3.59-19.43-4.11-25.53-5.45-4.32-13.34-5.52-20.48-4.37-8.67,1.39-14.87,6.39-22.67,9.65-4.5,1.88-10.48-2.56-4.77-5.82,1.63-.93,3.61-1.17,5.51-1.49,11.89-2,31.14-12.88,22.45-27.7-3.75-6.41-11.5-10.32-18.67-11.25-12.17-1.58-25.76,2.75-34.63,11.13-17.46,16.49-19.94,45.17-8.5,65.6,2.22,3.96,6.28,8.63,11.06,9.29,4.51.62,8.96-2.59,10.87-6.47,2.85-5.78,1.56-12.87-2.27-17.83-3.48-4.51-8.53-7.61-11.46-12.59-6.66-11.35,2.2-29.15,13.08-34.49,6.2-3.04,13.64-3.26,19.97-.54,4.72,2.02,10.97,6.44,8.06,12.36-.99,2.01-2.8,3.53-4.79,4.56-6.49,3.36-15.86,3.65-18.7,11.76-1.11,3.17-.11,6.72,2.48,8.85,3.9,3.22,9.54,3.17,14.29,1.44,2.84-1.03,5.35-2.79,8.01-4.21,3.25-1.73,5.97-3.35,9.6-4Z"/>
  <g>
    <path d="M96.34,247.73c0-7.35,3.07-14.53,7.71-19.7l2.45,1.92c-3.61,5.57-5.71,10.61-5.71,17.78s2.09,12.17,5.71,17.7l-2.45,2.01c-4.63-5.13-7.71-12.35-7.71-19.7Z"/>
    <path d="M136.7,228.83h17.29c5.57,0,8.87,3.3,8.87,7.58,0,3.7-2.58,6.24-5.44,6.82,3.3.49,6.06,3.65,6.06,7.31,0,4.63-3.39,8.02-9.09,8.02h-17.7v-29.73ZM153.19,241.4c3.08,0,4.86-1.74,4.86-4.19s-1.78-4.23-4.86-4.23h-11.81v8.43h11.81ZM153.42,254.42c3.3,0,5.26-1.74,5.26-4.5s-1.87-4.5-5.26-4.5h-12.04v9h12.04Z"/>
    <path d="M186.11,228.83h5.75l13.28,29.73h-5.21l-2.63-6.11h-16.62l-2.63,6.11h-5.22l13.28-29.73ZM195.52,248.27l-6.55-15.25-6.51,15.25h13.06Z"/>
    <path d="M213.06,253.88l2.8-3.52c2.45,2.45,6.38,4.55,11.32,4.55,5.62,0,7.98-2.23,7.98-4.55,0-3.17-3.65-3.92-8.74-4.77-6.15-.98-12.39-2.27-12.39-8.65,0-5.08,5.03-8.6,12.43-8.6,5.48,0,9.81,1.69,12.84,4.68l-2.85,3.39c-2.5-2.41-6.06-3.88-10.34-3.88s-7.17,1.6-7.17,4.06c0,2.76,3.3,3.48,8.51,4.37,6.2,1.11,12.57,2.45,12.57,8.96,0,4.81-4.05,9.18-13.06,9.18-6.11,0-11.19-2.41-13.91-5.22Z"/>
    <path d="M252.26,228.83h4.68v29.73h-4.68v-29.73Z"/>
    <path d="M269.34,243.72c0-9.18,7.18-15.38,17.07-15.38,6.64,0,11.1,2.76,13.77,6.6l-3.92,2.36c-2.05-2.99-5.44-4.77-9.85-4.77-7.18,0-12.21,4.55-12.21,11.19s5.03,11.19,12.21,11.19c4.37,0,7.8-1.78,9.72-4.59l4.05,2.27c-2.76,3.75-7.13,6.51-13.77,6.51-9.9,0-17.07-6.2-17.07-15.38Z"/>
    <path d="M310.1,243.72c0-9,6.78-15.38,16.76-15.38s16.76,6.37,16.76,15.38-6.78,15.38-16.76,15.38-16.76-6.37-16.76-15.38ZM326.86,254.91c7.22,0,11.9-4.64,11.9-11.19s-4.68-11.19-11.9-11.19-11.9,4.59-11.9,11.19,4.68,11.19,11.9,11.19Z"/>
    <path d="M354.12,253.88l2.8-3.52c2.45,2.45,6.38,4.55,11.32,4.55,5.61,0,7.98-2.23,7.98-4.55,0-3.17-3.65-3.92-8.74-4.77-6.15-.98-12.39-2.27-12.39-8.65,0-5.08,5.03-8.6,12.43-8.6,5.48,0,9.81,1.69,12.84,4.68l-2.85,3.39c-2.5-2.41-6.06-3.88-10.34-3.88s-7.17,1.6-7.17,4.06c0,2.76,3.3,3.48,8.51,4.37,6.2,1.11,12.57,2.45,12.57,8.96,0,4.81-4.05,9.18-13.06,9.18-6.11,0-11.19-2.41-13.91-5.22Z"/>
    <path d="M412.5,228.83h23.71v4.15h-19.03v8.34h18.5v4.14h-18.5v8.96h19.03v4.15h-23.71v-29.73Z"/>
    <path d="M446.97,253.88l2.8-3.52c2.45,2.45,6.38,4.55,11.32,4.55,5.62,0,7.98-2.23,7.98-4.55,0-3.17-3.65-3.92-8.74-4.77-6.15-.98-12.39-2.27-12.39-8.65,0-5.08,5.03-8.6,12.43-8.6,5.48,0,9.81,1.69,12.84,4.68l-2.85,3.39c-2.5-2.41-6.06-3.88-10.34-3.88s-7.17,1.6-7.17,4.06c0,2.76,3.3,3.48,8.51,4.37,6.2,1.11,12.57,2.45,12.57,8.96,0,4.81-4.05,9.18-13.06,9.18-6.11,0-11.19-2.41-13.91-5.22Z"/>
    <path d="M486.17,228.83h23.71v4.15h-19.03v8.34h18.5v4.14h-18.5v8.96h19.03v4.15h-23.71v-29.73Z"/>
    <path d="M522.56,228.83h4.9l18.98,22.73v-22.73h4.68v29.73h-4.59l-19.3-23.18v23.18h-4.68v-29.73Z"/>
    <path d="M563.55,243.72c0-9.18,7.18-15.38,17.07-15.38,6.64,0,11.1,2.76,13.77,6.6l-3.92,2.36c-2.05-2.99-5.44-4.77-9.85-4.77-7.18,0-12.21,4.55-12.21,11.19s5.03,11.19,12.21,11.19c4.37,0,7.8-1.78,9.72-4.59l4.05,2.27c-2.76,3.75-7.13,6.51-13.77,6.51-9.9,0-17.07-6.2-17.07-15.38Z"/>
    <path d="M605.74,228.83h4.68v29.73h-4.68v-29.73Z"/>
    <path d="M634.23,228.83h5.75l13.28,29.73h-5.21l-2.63-6.11h-16.62l-2.63,6.11h-5.22l13.28-29.73ZM643.64,248.27l-6.55-15.25-6.51,15.25h13.06Z"/>
    <path d="M663.76,228.83h4.68v25.59h16.54v4.15h-21.21v-29.73Z"/>
    <path d="M696.72,228.83h23.71v4.15h-19.03v8.34h18.5v4.14h-18.5v8.96h19.03v4.15h-23.71v-29.73Z"/>
    <path d="M731.19,253.88l2.8-3.52c2.45,2.45,6.38,4.55,11.32,4.55,5.61,0,7.98-2.23,7.98-4.55,0-3.17-3.65-3.92-8.74-4.77-6.15-.98-12.39-2.27-12.39-8.65,0-5.08,5.03-8.6,12.43-8.6,5.48,0,9.81,1.69,12.84,4.68l-2.85,3.39c-2.5-2.41-6.06-3.88-10.34-3.88s-7.17,1.6-7.17,4.06c0,2.76,3.3,3.48,8.51,4.37,6.2,1.11,12.57,2.45,12.57,8.96,0,4.81-4.05,9.18-13.06,9.18-6.11,0-11.19-2.41-13.91-5.22Z"/>
    <path d="M792.47,247.73c0-7.18-2.05-12.21-5.71-17.78l2.41-1.92c4.72,5.17,7.75,12.35,7.75,19.7s-3.03,14.58-7.71,19.7l-2.45-1.96c3.65-5.53,5.71-10.56,5.71-17.74Z"/>
  </g>
  <g>
    <g>
      <path d="M289.83,387.49c0-2.71-2.32-4.07-5.17-4.07-3.03,0-5.53,1.14-7.31,2.89l-2.14-2.5c2.35-2.5,6.06-3.75,9.41-3.75,4.49,0,9.06,2.39,9.06,7.42,0,4.42-3.82,7.99-11.84,13.41h12.02v3.32h-18.51v-2.89c11.12-7.38,14.48-10.31,14.48-13.84Z"/>
      <path d="M299.54,392.34c0-5.92,3.14-12.27,10.38-12.27s10.37,6.35,10.37,12.27-3.14,12.3-10.37,12.3-10.38-6.38-10.38-12.3ZM309.92,401.29c4.67,0,6.49-4.39,6.49-8.95s-1.79-8.92-6.49-8.92-6.49,4.32-6.49,8.92,1.79,8.95,6.49,8.95Z"/>
    </g>
    <g>
      <path d="M588.27,387.49c0-2.71-2.32-4.07-5.17-4.07-3.03,0-5.53,1.14-7.31,2.89l-2.14-2.5c2.35-2.5,6.06-3.75,9.41-3.75,4.49,0,9.06,2.39,9.06,7.42,0,4.42-3.82,7.99-11.84,13.41h12.02v3.32h-18.51v-2.89c11.12-7.38,14.48-10.31,14.48-13.84Z"/>
      <path d="M597.98,392.34c0-6.67,3.78-12.27,11.23-12.27,3.39,0,5.81,1.18,7.6,2.89l-1.86,2.78c-1.42-1.43-2.99-2.35-5.74-2.35-4.63,0-7.17,3.74-7.35,8.2-.03.29-.03.57,0,.86,1.28-1.6,4.21-3.35,7.42-3.35,4.78,0,8.78,2.64,8.78,7.63,0,4.39-3.71,7.92-9.38,7.92-7.56,0-10.7-5.71-10.7-12.3ZM608.46,401.29c3.71,0,5.74-2.21,5.74-4.49,0-3-2.53-4.56-5.67-4.56-2.5,0-4.96,1.11-6.53,2.96.47,3.07,2.28,6.1,6.45,6.1Z"/>
    </g>
  </g>
</svg>