<?xml version="1.0" encoding="UTF-8"?>
<svg id="Capa_1" xmlns="http://www.w3.org/2000/svg" version="1.1" viewBox="0 0 893.27 120.29">
  <!-- Generator: Adobe Illustrator 30.1.0, SVG Export Plug-In . SVG Version: 2.1.1 Build 136)  -->
  <path d="M140.92,10.14C130.83,3.38,117.14,0,99.85,0H0v120.29h31.28v-34.37h69.26c13.28,0,24.03-1.66,32.22-4.98,8.19-3.32,14.12-8.22,17.79-14.69,3.66-6.47,5.5-14.52,5.5-24.14,0-14.55-5.04-25.2-15.12-31.96ZM122.61,55.94c-2.01,3.27-5.07,5.7-9.19,7.3-4.12,1.61-9.51,2.35-16.15,2.23H31.28V21.65h66.68c9.63,0,16.64,1.6,21.05,4.81s6.62,8.59,6.62,16.15c0,5.61-1,10.05-3.01,13.32Z"/>
  <polygon points="203.3 0 172.02 0 172.02 120.29 300.05 120.29 300.05 99.15 203.3 99.15 203.3 0"/>
  <path d="M378.41,0l-72.01,120.29h33.85l15.99-28.87h82.35l15.94,28.87h33.51L416.56,0h-38.15ZM367.67,70.8l28.27-51.04h3.09l28.18,51.04h-59.54Z"/>
  <polygon points="636.53 87 529.81 0 498.7 0 498.7 120.29 527.57 120.29 527.57 31.78 634.63 120.29 665.4 120.29 665.4 0 636.53 0 636.53 87"/>
  <path d="M888.28,72.43c-3.32-3.95-7.85-6.84-13.58-8.68-5.73-1.83-12.6-2.92-20.62-3.26v-1.2c9.62-.69,17.44-3.35,23.46-7.99,6.01-4.64,9.02-11.54,9.02-20.71,0-7.56-2.2-13.58-6.61-18.04-4.42-4.47-10.49-7.68-18.22-9.63-7.73-1.95-17.22-2.92-28.44-2.92h-101.56v120.29h102.76c12.94,0,23.74-1.14,32.39-3.44,8.65-2.29,15.21-5.87,19.68-10.74s6.71-10.97,6.71-18.3c0-6.3-1.66-11.43-4.99-15.38ZM847.81,22.94c4.3,2.12,6.44,5.82,6.44,11.08,0,5.73-2.35,9.83-7.04,12.29-4.7,2.47-11.63,3.7-20.8,3.7h-63.41v-30.25h64.96c8.94,0,15.55,1.06,19.85,3.18ZM853.31,96.58c-4.64,2.52-12.12,3.78-22.43,3.78h-67.88v-30.59h66.51c10.43,0,18.16,1.12,23.21,3.35,5.03,2.23,7.56,6.05,7.56,11.43s-2.32,9.51-6.96,12.03Z"/>
</svg>